<?xml version="1.0" encoding="UTF-8"?>
<svg xmlns="http://www.w3.org/2000/svg" xmlns:xlink="http://www.w3.org/1999/xlink" width="50pt" height="50pt" viewBox="0 0 50 50" version="1.1">
<g id="surface1285812">
<path style=" stroke:none;fill-rule:nonzero;fill:rgb(1.568627%,81.960784%,1.568627%);fill-opacity:1;" d="M 24.746094 2 C 15.511719 2 8 9.480469 8 18.679688 C 8 20.949219 8.441406 23.136719 9.316406 25.175781 C 11.152344 29.445312 23.65625 46.84375 24.1875 47.585938 C 24.375 47.84375 24.679688 48 25 48 C 25.320312 48 25.625 47.84375 25.8125 47.585938 C 26.34375 46.847656 38.851562 29.445312 40.683594 25.175781 C 41.558594 23.136719 42 20.949219 42 18.679688 C 42 9.636719 34.097656 2 24.746094 2 Z M 31.796875 11.6875 L 28.109375 23.660156 L 28.101562 23.664062 C 28.035156 23.859375 27.855469 24.003906 27.632812 24.003906 C 27.511719 24.003906 27.402344 23.953125 27.316406 23.878906 L 27.308594 23.882812 L 25 22 L 20.164062 27.804688 L 20.15625 27.800781 C 20.0625 27.921875 19.921875 28 19.761719 28 C 19.472656 28 19.242188 27.769531 19.242188 27.480469 C 19.242188 27.417969 19.257812 27.359375 19.277344 27.304688 L 19.273438 27.300781 L 24.027344 15.335938 L 24.03125 15.335938 C 24.101562 15.140625 24.28125 15 24.5 15 C 24.636719 15 24.757812 15.054688 24.847656 15.144531 L 24.851562 15.144531 L 24.855469 15.148438 L 26.941406 17.101562 L 30.859375 11.222656 C 30.953125 11.089844 31.109375 11 31.289062 11 C 31.582031 11 31.820312 11.238281 31.820312 11.53125 C 31.820312 11.585938 31.8125 11.636719 31.796875 11.6875 Z M 31.796875 11.6875 "/>
</g>
</svg>
