<?xml version="1.0" encoding="UTF-8"?>
<svg xmlns="http://www.w3.org/2000/svg" xmlns:xlink="http://www.w3.org/1999/xlink" width="50pt" height="50pt" viewBox="0 0 50 50" version="1.1">
<g id="surface1496873">
<path style=" stroke:none;fill-rule:nonzero;fill:rgb(1.568627%,81.960784%,1.568627%);fill-opacity:1;" d="M 24.746094 2 C 24.671875 2 24.601562 2.007812 24.53125 2.023438 C 15.398438 2.140625 8 9.550781 8 18.675781 C 8 20.976562 8.460938 23.179688 9.320312 25.175781 C 9.839844 26.390625 10.988281 28.277344 12.46875 30.574219 C 13.945312 32.871094 15.738281 35.523438 17.472656 38.042969 C 20.945312 43.078125 24.1875 47.582031 24.1875 47.582031 C 24.375 47.847656 24.679688 48 25 48 C 25.320312 48 25.625 47.847656 25.8125 47.582031 C 25.8125 47.582031 29.054688 43.078125 32.527344 38.042969 C 34.261719 35.523438 36.054688 32.871094 37.53125 30.574219 C 39.011719 28.277344 40.160156 26.390625 40.683594 25.175781 C 41.539062 23.179688 42 20.976562 42 18.675781 C 42 9.507812 34.101562 2.136719 24.957031 2.023438 C 24.890625 2.007812 24.816406 2 24.746094 2 Z M 24.746094 4 C 32.902344 4 40 10.601562 40 18.675781 C 40 20.710938 39.59375 22.636719 38.84375 24.386719 C 38.460938 25.28125 37.3125 27.222656 35.851562 29.488281 C 34.390625 31.757812 32.609375 34.394531 30.878906 36.90625 C 27.839844 41.3125 25.652344 44.355469 25 45.261719 C 24.347656 44.355469 22.160156 41.3125 19.121094 36.90625 C 17.390625 34.394531 15.609375 31.757812 14.148438 29.488281 C 12.6875 27.222656 11.539062 25.28125 11.15625 24.386719 C 10.40625 22.636719 10 20.710938 10 18.675781 C 10 10.5625 16.589844 4 24.746094 4 Z M 31.289062 11 C 31.109375 11 30.953125 11.089844 30.859375 11.222656 L 26.9375 17.097656 L 24.855469 15.144531 L 24.847656 15.140625 C 24.757812 15.054688 24.636719 15 24.5 15 C 24.28125 15 24.101562 15.140625 24.03125 15.335938 L 24.027344 15.335938 L 19.273438 27.300781 L 19.277344 27.300781 C 19.257812 27.359375 19.242188 27.417969 19.242188 27.480469 C 19.242188 27.765625 19.472656 28 19.761719 28 C 19.921875 28 20.0625 27.917969 20.15625 27.800781 L 20.160156 27.804688 L 25 22 L 27.3125 23.878906 L 27.316406 23.878906 C 27.402344 23.953125 27.511719 24 27.636719 24 C 27.855469 24 28.035156 23.859375 28.105469 23.660156 L 28.109375 23.660156 L 31.796875 11.6875 C 31.8125 11.636719 31.820312 11.582031 31.820312 11.53125 C 31.820312 11.234375 31.582031 11 31.289062 11 Z M 31.289062 11 "/>
</g>
</svg>
